{"title":"Young Frankenstein 1974 BluRay 1080p DTS x264","uid":5891024,"size":8645441088,"categoryP":"video","categoryS":"hd___movies","magnet":"?xt=urn:btih:e0ca2c8f1a75220b4d2c6d2b17ec791485653f4b&amp;dn=Young+Frankenstein+1974+BluRay+1080p+DTS+x264&amp;tr=udp%3A%2F%2Ftracker.openbittorrent.com%3A80&amp;tr=udp%3A%2F%2Fopen.demonii.com%3A1337&amp;tr=udp%3A%2F%2Ftracker.coppersurfer.tk%3A6969&amp;tr=udp%3A%2F%2Fexodus.desync.com%3A6969","seeders":4,"leechers":3,"uploader":"bobnjeff","files":1,"time":1287249215,"description":"[IMG]http://i1015.photobucket.com/albums/af279/tequila-bob/young%20frankenstein/youngfrank.jpg[/IMG]\n\nYoung Frankenstein 1974 BluRay 1080p DTS x264\n\nEncoded by Tequila-Bob a.k.a. bobnjeff\nsource NTSC BluRay Disc\n\nRelease Date:15 December 1974 (USA) \n &lt;a href=&quot;\nhttp://www.imdb.com/title/tt0072431/&quot; rel=&quot;nofollow&quot; target=&quot;_NEW&quot;&gt;\nhttp://www.imdb.com/title/tt0072431/&lt;/a&gt;\n\nGenres:Comedy | Sci-Fi\n\nTaglines:The scariest comedy of all time! \n\nRated: PG (Parental Guidance Suggested) \n\nStoryline\nA young neurosurgeon (Gene Wilder) inherits the castle of his grandfather, the famous Dr. Victor von Frankenstein. In the castle he finds a funny hunchback called Igor, a pretty lab assistant named Inga and the old housekeeper, frau Blucher -iiiiihhh!-. Young Frankenstein believes that the work of his grandfather is only crap, but when he discovers the book where the mad doctor described his reanimation experiment, he suddenly changes his mind... \n\n\n\n\nCast\nCast overview, first billed only: \n  Gene Wilder  ...  Dr. Frankenstein  \n  Peter Boyle  ...  The Monster  \n  Marty Feldman  ...  Igor  \n  Cloris Leachman  ...  Frau BlÃƒÂ¼cher  \n  Teri Garr  ...  Inga  \n  Kenneth Mars  ...  Inspector Kemp  \n  Richard Haydn  ...  Herr Falkstein  \n  Liam Dunn  ...  Mr. Hilltop  \n  Danny Goldman  ...  Medical Student  \n  Oscar Beregi Jr.  ...  Sadistic Jailor (as Oscar Beregi)  \n  Arthur Malet  ...  Village Elder  \n  Anne Beesley  ...  Little Girl  \n  Monte Landis  ...  Gravedigger  \n  Rusty Blitz  ...  Gravedigger  \n  John Madison  ...  A Villager  \n\n\n\n\nFormat : Matroska \nFile size : 8.05 GiB \nDuration : 1h 45mn \nOverall bit rate : 10.9 Mbps \nEncoded date : UTC 2010-10-14 02:39:11 \nWriting application : mkvmerge v4.3.0 \n\nCodec ID : V_MPEG4/ISO/AVC \nDuration : 1h 45mn \nBit rate : 9 267 Kbps \nWidth : 1 920 pixels \nHeight : 1 040 pixels \nDisplay aspect ratio : 16:9 \nFrame rate : 23.976 fps \nColor space : YUV \nChroma subsampling : 4:2:0 \nBit depth : 8 bits \nScan type : Progressive \nBits/(Pixel*Frame) : 0.194 \nStream size : 6.78 GiB (84%) \n\nCodec ID : A_DTS \nDuration : 1h 45mn \nBit rate mode : Constant \nBit rate : 1 510 Kbps \nChannel(s) : 6 channels \nChannel positions : Front: L C R, Side: L R, LFE \nSampling rate : 48.0 KHz \nBit depth : 24 bits \nVideo delay : 10ms \nStream size : 1.11 GiB (14%)\n\nText #1 \nLanguage/String : English\n\nText #2 \nLanguage/String : Spanish \n\nText #3 \nLanguage/String : Chinese \n\nText #4 \nLanguage/String : Chinese \n\nText #5  \nLanguage/String : French \n\nText #6  \nLanguage/String : French \n\nText #7  \nLanguage/String : Spanish \n\nText #8 \nLanguage/String : Spanish \n\nText #9 \nLanguage/String : English \n\nMenu: Chapters 27\n\n[img]http://torrent-stats.info/6d2b/679fd100.png[/img]\n &lt;a href=&quot;\nhttp://photobucket.com/young_frankenstein_tequila-bob&quot; rel=&quot;nofollow&quot; target=&quot;_NEW&quot;&gt;\nhttp://photobucket.com/young_frankenstein_tequila-bob&lt;/a&gt;  \n","torrent":{"xt":"urn:btih:e0ca2c8f1a75220b4d2c6d2b17ec791485653f4b","amp;dn":"Young+Frankenstein+1974+BluRay+1080p+DTS+x264","amp;tr":["udp%3A%2F%2Ftracker.openbittorrent.com%3A80","udp%3A%2F%2Fopen.demonii.com%3A1337","udp%3A%2F%2Ftracker.coppersurfer.tk%3A6969","udp%3A%2F%2Fexodus.desync.com%3A6969"],"infoHash":"e0ca2c8f1a75220b4d2c6d2b17ec791485653f4b","infoHashBuffer":{"type":"Buffer","data":[224,202,44,143,26,117,34,11,77,44,109,43,23,236,121,20,133,101,63,75]},"announce":[],"urlList":[]}}